<?xml version="1.0" encoding="UTF-8"?>
<svg width="200" height="60" viewBox="0 0 200 60" fill="none" xmlns="http://www.w3.org/2000/svg">
  <rect width="200" height="60" fill="#1B5E20"/>
  <path d="M20 15H40V45H20V15Z" fill="#FF8F00"/>
  <path d="M50 15H70V30H50V15Z" fill="#FFFFFF"/>
  <path d="M50 35H70V45H50V35Z" fill="#FFFFFF"/>
  <path d="M80 15H100V25H80V15Z" fill="#FFFFFF"/>
  <path d="M80 30H100V45H80V30Z" fill="#FFFFFF"/>
  <path d="M110 15H150V25H110V15Z" fill="#FFFFFF"/>
  <path d="M110 30H150V35H110V30Z" fill="#FFFFFF"/>
  <path d="M110 40H150V45H110V40Z" fill="#FFFFFF"/>
  <path d="M160 15H180V45H160V15Z" fill="#FF8F00"/>
  <text x="40" y="50" font-family="Arial" font-size="14" fill="#FFFFFF">POLYORGANICS</text>
</svg>
